<svg xmlns="http://www.w3.org/2000/svg" viewBox="0 0 320 100" fill="none" width="640" height="200">
  <!-- ── Icon mark ── -->
  <polygon points="50,6 88,28 88,72 50,94 12,72 12,28" fill="rgba(15,108,189,0.18)" stroke="#0f6cbd" stroke-width="1.5"/>
  <line x1="50" y1="94" x2="50" y2="80" stroke="#0f6cbd" stroke-width="1.5" stroke-dasharray="3,2"/>
  <line x1="12" y1="50" x2="26" y2="50" stroke="#0f6cbd" stroke-width="1.5" stroke-dasharray="3,2"/>
  <line x1="88" y1="50" x2="74" y2="50" stroke="#0f6cbd" stroke-width="1.5" stroke-dasharray="3,2"/>
  <path d="M50 22 L30 72 L40 72 L50 48 L60 72 L70 72 Z" fill="#0f172a" opacity="0.95"/>
  <rect x="37" y="57" width="26" height="5" rx="2" fill="#0f6cbd"/>
  <circle cx="50" cy="22" r="3.5" fill="#0f6cbd"/>
  <circle cx="50" cy="80" r="3" fill="#0f6cbd"/>
  <circle cx="26" cy="50" r="3" fill="#0f6cbd"/>
  <circle cx="74" cy="50" r="3" fill="#0f6cbd"/>

  <!-- ── Wordmark ── -->
  <!-- ANIDHA -->
  <text x="106" y="52" font-family="Georgia, 'Times New Roman', serif" font-size="28" font-weight="700" fill="#0f172a" letter-spacing="3">ANIDHA</text>
  <!-- TECH SOLUTIONS -->
  <text x="107" y="70" font-family="Arial, Helvetica, sans-serif" font-size="11" font-weight="500" fill="#0f6cbd" letter-spacing="5">TECH SOLUTIONS</text>
  <!-- Thin rule between name and tagline -->
  <line x1="106" y1="57" x2="300" y2="57" stroke="#e2e8f0" stroke-width="0.8"/>
  <!-- LLP badge -->
  <rect x="258" y="38" width="34" height="14" rx="3" fill="#0f6cbd"/>
  <text x="263" y="49" font-family="Arial, Helvetica, sans-serif" font-size="9" font-weight="700" fill="#ffffff" letter-spacing="1">LLP</text>
</svg>
